<?xml version="1.0" encoding="iso-8859-1"?><!-- Generator: Adobe Illustrator 22.0.1, SVG Export Plug-In . SVG Version: 6.00 Build 0)  --><svg xmlns="http://www.w3.org/2000/svg" xmlns:xlink="http://www.w3.org/1999/xlink" viewBox="0 0 50 50" width="50px" height="50px"><g><g><path d="M28.162,35.81C28.62,35.744,28.963,35.392,29,35c0.046-0.492-0.395-0.998-1-1c0.132-1.143,0.341-2.41,0.668-3.767c0.243-1.011,0.52-1.943,0.808-2.793l0.491-1.34h-8.763c0.582-4.02,1.735-7.92,3.419-11.62c1.023-2.25,2.236-4.41,3.63-6.44H3v33.98h26.326c-0.379-1.119-0.732-2.451-0.953-3.97C28.258,37.255,28.193,36.505,28.162,35.81z M11.91,13.973c0.679,0,1.358,0,2.037,0c0.001,1.686,0.003,3.372,0.004,5.059c-0.684-0.005-1.368-0.01-2.052-0.016C11.902,17.335,11.906,15.654,11.91,13.973z M24.032,36.05c-0.371,0-0.732-0.01-1.103-0.02c-4.622-0.15-9.124-1.17-13.376-3.05l0.812-1.83c4.011,1.77,8.262,2.74,12.624,2.88c1.063,0.03,2.126,0.02,3.188-0.05c-0.03,0.64-0.03,1.31,0,2C25.465,36.03,24.743,36.05,24.032,36.05z"/></g><g><rect x="34.01" y="14.01" width="1.865" height="4.97"/></g><path d="M29.35,42.02c0.1,0.31,0.21,0.61,0.33,0.92h-2.13c-0.11-0.3-0.21-0.61-0.3-0.92c-0.11-0.36-0.22-0.72-0.31-1.08c-0.23-0.86-0.4-1.74-0.52-2.61c-0.11-0.81-0.18-1.59-0.21-2.35c-0.03-0.69-0.03-1.36,0-2c0.1-2.28,0.5-4.27,0.97-5.88h-8.2l0.13-1.11c0.56-4.62,1.81-9.11,3.73-13.34c0.73-1.62,1.56-3.19,2.48-4.69c0.18-0.31,0.38-0.62,0.57-0.92c0.23-0.36,0.46-0.72,0.71-1.08h2.44c-0.26,0.36-0.51,0.72-0.76,1.08c-0.21,0.3-0.41,0.61-0.6,0.92c-1.15,1.76-2.15,3.61-3.02,5.52c-1.68,3.7-2.83,7.6-3.41,11.62h8.74l-0.49,1.34c-0.14,0.4-0.29,0.83-0.42,1.29c-0.01,0.02-0.01,0.04-0.02,0.05c-0.05,0.17-0.1,0.35-0.15,0.54c-0.33,1.28-0.61,2.78-0.7,4.47c0,0.06-0.01,0.12,0,0.19C28.2,33.99,28.2,34,28.2,34.02c-0.02,0.57-0.03,1.16-0.01,1.78v0.01c0.04,0.72,0.1,1.47,0.21,2.24c0.14,0.97,0.34,1.94,0.61,2.89C29.12,41.31,29.23,41.66,29.35,42.02z"/><g><path d="M40.43,33.04c-3.25,1.43-6.72,2.36-10.24,2.77c-0.66,0.08-1.32,0.13-1.98,0.17c-0.03-0.69-0.03-1.36,0-2c0.67-0.04,1.34-0.11,2-0.19c3.24-0.4,6.43-1.27,9.42-2.58L40.43,33.04z"/></g><g><rect x="34.01" y="14.01" width="1.865" height="4.97"/></g><g><path d="M2.1,6.96v35.98H48V6.96H2.1z M46,40.94H4.1V8.96H46V40.94z"/></g></g></svg>