<?xml version="1.0" standalone="no"?>
<!DOCTYPE svg PUBLIC "-//W3C//DTD SVG 20010904//EN"
 "http://www.w3.org/TR/2001/REC-SVG-20010904/DTD/svg10.dtd">
<svg version="1.0" xmlns="http://www.w3.org/2000/svg"
 width="600.000000pt" height="600.000000pt" viewBox="0 0 600.000000 600.000000"
 preserveAspectRatio="xMidYMid meet">

<g transform="translate(0.000000,600.000000) scale(0.100000,-0.100000)"
fill="#000000" stroke="none">
<path d="M833 5169 c-24 -4 -60 -16 -80 -25 -57 -27 -155 -130 -189 -199 -27
-56 -29 -68 -29 -175 0 -109 2 -119 32 -183 63 -132 171 -213 308 -231 92 -12
235 42 296 111 16 19 46 66 67 106 37 71 37 73 37 192 0 115 -2 123 -32 185
-58 117 -160 197 -282 220 -60 11 -69 11 -128 -1z m147 -218 c114 -60 135
-251 39 -343 -70 -66 -144 -68 -216 -5 -74 65 -93 168 -49 262 34 74 75 105
139 105 32 0 66 -7 87 -19z"/>
<path d="M5009 5170 c-113 -14 -215 -96 -272 -218 -29 -63 -31 -74 -32 -187 0
-115 1 -123 32 -185 45 -93 96 -148 167 -181 96 -45 154 -54 241 -34 258 57
382 356 253 609 -47 93 -159 179 -249 191 -24 4 -53 8 -64 9 -11 2 -45 0 -76
-4z m114 -204 c69 -28 127 -125 127 -208 0 -70 -50 -152 -112 -184 -39 -20
-107 -17 -145 6 -110 67 -126 258 -29 349 23 22 86 50 114 51 7 0 27 -6 45
-14z"/>
<path d="M663 4220 c-117 -16 -246 -108 -306 -218 -31 -56 -47 -148 -47 -271
0 -82 1 -85 36 -127 l35 -44 518 0 517 0 48 49 49 50 -6 104 c-7 113 -30 201
-70 270 -46 77 -143 153 -232 179 -42 12 -467 18 -542 8z m518 -215 c33 -18
88 -80 104 -119 7 -17 16 -52 20 -78 l7 -47 -401 0 -401 0 0 40 c0 72 53 165
112 195 53 27 116 33 328 27 144 -3 212 -9 231 -18z"/>
<path d="M4810 4217 c-176 -41 -300 -173 -331 -351 -16 -93 -7 -206 21 -250
34 -56 61 -59 609 -54 l483 4 39 41 c39 42 39 43 39 120 -1 131 -16 219 -49
277 -54 93 -151 176 -238 202 -62 19 -503 27 -573 11z m479 -198 c27 -6 68
-23 89 -39 47 -34 92 -118 92 -172 0 -34 -3 -38 -34 -43 -19 -4 -197 -5 -397
-3 l-364 3 1 46 c2 56 43 140 81 167 29 20 86 39 138 45 72 9 348 6 394 -4z"/>
<path d="M2898 4140 c-63 -11 -162 -61 -220 -110 -58 -50 -133 -161 -159 -236
-73 -208 -29 -428 117 -583 99 -105 219 -161 349 -161 190 0 358 112 455 304
l45 89 4 124 c4 139 -5 188 -51 278 -92 181 -240 285 -428 299 -36 2 -86 1
-112 -4z m184 -216 c156 -50 251 -273 190 -447 -72 -202 -269 -282 -435 -177
-168 106 -201 388 -63 538 98 106 175 128 308 86z"/>
<path d="M1638 3863 c-74 -81 -49 -112 312 -394 234 -182 248 -188 315 -135
43 35 39 85 -12 138 -41 44 -413 348 -478 391 -54 36 -103 36 -137 0z"/>
<path d="M4208 3867 c-43 -26 -423 -336 -485 -396 -47 -44 -55 -79 -28 -117
19 -29 81 -57 105 -49 42 13 509 381 549 431 33 41 28 96 -10 128 -38 32 -82
33 -131 3z"/>
<path d="M2847 2950 c-271 -12 -304 -19 -404 -82 -81 -51 -174 -151 -212 -230
-48 -98 -64 -177 -65 -313 -1 -101 2 -126 19 -160 28 -56 72 -82 153 -91 88
-9 1291 13 1361 26 65 11 88 30 102 84 16 59 12 250 -6 321 -54 211 -222 385
-416 429 -83 20 -309 26 -532 16z m459 -210 c174 -28 273 -143 297 -345 6 -52
9 -97 6 -99 -4 -4 -555 -14 -1001 -19 -124 -1 -230 2 -234 6 -28 28 9 226 54
292 71 103 147 152 261 164 107 12 543 13 617 1z"/>
<path d="M820 2494 c-112 -30 -198 -105 -253 -222 -30 -63 -32 -74 -32 -183 0
-111 1 -118 33 -181 82 -162 222 -239 394 -217 124 15 214 84 281 214 31 58
32 65 32 185 0 121 -1 127 -32 185 -94 178 -256 262 -423 219z m171 -217 c47
-31 89 -116 89 -181 0 -90 -59 -186 -127 -205 -45 -13 -122 5 -154 35 -45 43
-72 118 -67 186 10 142 155 235 259 165z"/>
<path d="M4995 2496 c-69 -17 -109 -40 -168 -95 -93 -86 -127 -169 -127 -308
0 -239 150 -403 371 -405 105 0 166 21 233 83 101 92 146 194 146 331 0 163
-119 338 -260 382 -68 21 -139 26 -195 12z m155 -217 c125 -70 131 -285 9
-367 -29 -20 -43 -23 -98 -20 -59 4 -66 7 -101 45 -73 78 -81 207 -18 299 44
64 137 83 208 43z"/>
<path d="M2130 1851 c-23 -15 -146 -113 -272 -216 -254 -208 -273 -231 -246
-288 10 -21 31 -41 53 -51 36 -17 37 -17 88 8 29 14 97 62 152 108 55 45 138
113 185 151 47 37 111 93 143 124 49 48 57 60 57 92 0 40 -11 59 -50 85 -35
23 -61 20 -110 -13z"/>
<path d="M3743 1865 c-32 -14 -63 -59 -63 -93 0 -32 34 -65 233 -230 226 -186
293 -237 328 -250 60 -23 129 23 129 88 0 32 -8 44 -57 91 -32 30 -127 111
-212 179 -85 69 -179 146 -210 172 -31 26 -64 48 -73 48 -9 0 -22 2 -30 5 -7
2 -27 -2 -45 -10z"/>
<path d="M628 1547 c-83 -24 -176 -88 -236 -164 -59 -75 -76 -140 -77 -291 l0
-133 43 -40 43 -40 487 4 c539 4 548 5 589 65 31 46 38 111 25 216 -15 118
-52 194 -131 270 -36 33 -88 70 -128 89 l-68 32 -250 2 c-181 2 -263 -1 -297
-10z m547 -214 c22 -12 50 -32 62 -45 33 -35 63 -108 63 -155 l0 -43 -378 -2
c-208 -2 -387 -1 -397 0 -15 3 -17 11 -12 58 12 112 84 185 202 203 33 5 141
9 240 7 161 -2 184 -4 220 -23z"/>
<path d="M4832 1550 c-121 -18 -259 -119 -316 -233 -34 -67 -47 -170 -39 -289
6 -75 6 -77 50 -113 l43 -36 514 7 514 7 31 40 c38 50 45 86 38 196 -11 188
-84 303 -245 389 l-79 42 -229 -1 c-126 -1 -253 -5 -282 -9z m459 -201 c91
-20 179 -125 179 -214 0 -45 4 -45 -405 -45 l-390 -1 1 44 c3 67 54 152 117
192 15 10 53 21 85 25 91 12 356 11 413 -1z"/>
</g>
</svg>
