<?xml version="1.0" standalone="no"?>
<!DOCTYPE svg PUBLIC "-//W3C//DTD SVG 20010904//EN"
 "http://www.w3.org/TR/2001/REC-SVG-20010904/DTD/svg10.dtd">
<svg version="1.0" xmlns="http://www.w3.org/2000/svg"
 width="500.000000pt" height="497.000000pt" viewBox="0 0 500.000000 497.000000"
 preserveAspectRatio="xMidYMid meet">

<g transform="translate(0.000000,497.000000) scale(0.100000,-0.100000)"
fill="#000000" stroke="none">
<path d="M2350 4953 c-265 -25 -423 -57 -613 -122 -234 -80 -378 -150 -572
-277 -585 -383 -976 -976 -1101 -1669 -21 -122 -30 -521 -15 -680 34 -344 165
-726 356 -1035 195 -313 514 -629 828 -819 280 -169 632 -292 962 -335 149
-20 495 -20 635 -1 444 62 825 219 1181 487 206 155 436 399 566 602 84 130
91 142 141 242 171 341 256 674 269 1049 21 633 -189 1226 -603 1706 -381 441
-909 734 -1484 824 -186 29 -418 41 -550 28z m54 -235 c3 -13 6 -247 6 -520
l0 -498 -47 0 c-61 0 -430 -35 -594 -56 -69 -9 -133 -15 -141 -13 -14 3 -8 29
36 164 65 195 108 297 180 425 141 248 311 430 469 500 58 26 83 25 91 -2z
m332 -12 c256 -129 509 -511 650 -983 15 -51 26 -95 23 -97 -2 -2 -58 4 -124
14 -66 10 -203 25 -305 34 -102 9 -207 18 -235 21 -27 2 -69 5 -92 5 l-43 0 0
520 0 520 29 0 c15 0 59 -16 97 -34z m-826 -33 c0 -4 -33 -50 -74 -102 -165
-215 -274 -440 -395 -816 -29 -88 -60 -167 -69 -176 -9 -9 -87 -39 -172 -67
-357 -114 -573 -223 -814 -411 -43 -34 -81 -59 -84 -57 -5 6 60 206 95 291
238 581 743 1068 1328 1283 175 64 185 67 185 55z m1410 -60 c115 -42 310
-142 428 -219 445 -290 762 -705 944 -1236 18 -53 30 -100 26 -103 -4 -4 -58
31 -120 78 -234 175 -463 285 -840 403 l-118 37 -25 86 c-129 434 -233 655
-432 920 -35 46 -63 88 -63 92 0 10 75 -12 200 -58z m-300 -1138 c153 -19 362
-52 412 -65 42 -12 45 -20 78 -230 38 -246 45 -340 44 -665 -1 -355 -9 -440
-70 -745 -86 -426 -203 -793 -332 -1045 -112 -218 -269 -402 -403 -472 l-74
-38 -161 0 -161 0 -79 40 c-294 149 -560 666 -708 1380 -111 532 -128 908 -66
1430 18 153 50 319 63 331 21 20 349 75 562 94 155 13 748 4 895 -15z m-1686
-133 c2 -4 0 -30 -5 -57 -15 -81 -46 -376 -60 -570 -7 -100 -17 -183 -23 -187
-6 -4 -235 -7 -510 -8 l-499 -1 7 42 c13 81 103 228 198 321 166 164 397 293
778 432 106 39 107 39 114 28z m2493 -38 c361 -130 612 -272 765 -432 106
-112 198 -266 198 -332 0 -21 -3 -21 -497 -17 -274 2 -505 7 -513 11 -12 5
-16 26 -18 84 -5 150 -46 574 -68 700 -4 17 -4 32 0 32 3 0 63 -21 133 -46z
m-2590 -984 c26 0 28 -13 43 -220 6 -80 22 -230 36 -334 13 -104 24 -195 24
-202 0 -24 -343 104 -512 190 -206 105 -384 244 -481 375 -35 47 -97 168 -97
188 0 5 217 7 482 5 266 -1 493 -2 505 -2z m3531 -5 c8 -8 -29 -85 -75 -158
-97 -152 -281 -296 -548 -427 -136 -67 -388 -160 -433 -160 -28 0 -28 6 -2
185 11 77 27 232 35 345 9 113 18 210 19 215 3 10 994 10 1004 0z m-4338 -550
c167 -135 475 -283 800 -385 74 -24 143 -50 153 -60 10 -9 49 -104 86 -211
124 -355 202 -508 366 -724 93 -122 88 -125 -86 -60 -244 92 -469 219 -654
368 -182 147 -389 375 -500 552 -139 220 -313 626 -253 589 7 -4 46 -35 88
-69z m4254 11 c-8 -29 -29 -92 -48 -138 -210 -521 -632 -971 -1141 -1218 -134
-65 -347 -144 -368 -137 -5 1 21 43 59 92 167 219 249 384 381 765 35 101 65
186 67 187 2 2 75 26 164 53 343 106 590 226 820 400 36 28 68 50 73 50 4 0 1
-24 -7 -54z"/>
<path d="M2415 3296 c-130 -40 -246 -156 -285 -284 -50 -160 -5 -322 121 -437
96 -88 185 -120 315 -113 70 4 94 10 158 41 86 43 156 113 202 205 27 53 29
64 29 177 0 115 -1 122 -32 180 -35 67 -117 155 -179 191 -80 47 -244 67 -329
40z"/>
<path d="M2255 2385 c-5 -2 -22 -6 -38 -9 -24 -6 -36 -25 -96 -149 -90 -187
-183 -419 -189 -473 -4 -36 -1 -46 22 -69 34 -34 81 -31 108 6 11 14 48 92 83
173 l63 148 4 -119 c2 -65 5 -347 6 -628 1 -280 5 -559 9 -618 l6 -109 40 -26
c55 -37 110 -36 164 1 l40 27 6 437 c4 240 8 438 10 440 3 2 29 1 59 -3 l55
-6 7 -172 c3 -94 7 -290 8 -434 l2 -264 30 -23 c17 -12 41 -26 53 -29 31 -10
97 10 133 40 l30 26 0 532 c0 535 8 926 19 926 3 0 23 -44 45 -98 67 -169 124
-280 147 -287 33 -11 87 4 104 28 23 32 19 69 -19 165 -51 132 -184 440 -218
503 -29 55 -30 56 -81 63 -53 6 -594 7 -612 1z"/>
</g>
</svg>
