<?xml version="1.0" standalone="no"?>
<!DOCTYPE svg PUBLIC "-//W3C//DTD SVG 20010904//EN"
 "http://www.w3.org/TR/2001/REC-SVG-20010904/DTD/svg10.dtd">
<svg version="1.0" xmlns="http://www.w3.org/2000/svg"
 width="400.000000pt" height="400.000000pt" viewBox="0 0 400.000000 400.000000"
 preserveAspectRatio="xMidYMid meet">

<g transform="translate(0.000000,400.000000) scale(0.100000,-0.100000)"
fill="#000000" stroke="none">
<path d="M699 3561 c-104 -104 -105 -99 94 -298 124 -125 168 -163 187 -163
20 0 65 -39 195 -169 94 -94 171 -177 173 -185 2 -8 -33 -53 -77 -99 -73 -76
-81 -88 -81 -123 0 -34 7 -46 48 -87 l49 -48 36 40 c41 46 55 84 37 106 -13
16 -6 35 14 35 12 0 298 281 304 299 5 16 -62 81 -83 81 -11 0 -31 -9 -45 -20
-14 -11 -30 -20 -35 -20 -6 0 -85 75 -177 168 -125 124 -169 175 -174 198 -4
24 -47 73 -168 193 -199 197 -194 196 -297 92z m169 -73 c20 -20 14 -42 -22
-77 -36 -35 -62 -37 -80 -9 -9 14 -3 25 29 58 41 42 54 47 73 28z m140 -140
c20 -20 13 -53 -17 -82 -35 -34 -74 -33 -79 2 -2 15 8 34 31 57 38 38 47 41
65 23z"/>
<path d="M3024 3468 c-119 -118 -165 -170 -169 -192 -5 -23 -53 -77 -173 -198
-92 -93 -171 -168 -177 -168 -5 0 -21 9 -35 20 -14 11 -34 20 -45 20 -13 0
-156 -136 -420 -400 -219 -220 -401 -400 -404 -400 -10 0 -121 90 -121 98 1
20 41 50 95 72 51 20 82 45 208 169 81 80 147 153 147 162 0 15 -168 190 -190
197 -6 2 -75 -60 -154 -138 -129 -128 -147 -149 -171 -210 -22 -55 -42 -83
-111 -151 -71 -70 -87 -82 -101 -73 -10 6 -20 22 -23 35 -9 38 -46 37 -86 -2
-19 -18 -34 -40 -34 -49 0 -21 20 -40 41 -40 9 0 22 -7 29 -16 12 -13 1 -28
-75 -104 -48 -49 -100 -91 -114 -95 -14 -3 -64 -44 -111 -91 -47 -46 -101 -92
-120 -102 -20 -10 -39 -29 -44 -45 -9 -26 -5 -33 74 -112 47 -47 92 -85 101
-85 18 0 59 41 59 59 0 7 43 56 95 108 52 53 95 103 95 112 0 10 15 32 34 50
l33 32 47 -60 c25 -34 46 -65 46 -70 0 -4 -42 -49 -92 -99 -73 -72 -99 -92
-121 -92 -39 0 -131 -94 -117 -120 7 -14 -49 -75 -320 -346 -226 -225 -330
-335 -330 -350 0 -35 54 -82 116 -100 101 -29 199 -135 219 -236 7 -37 58 -88
88 -88 14 0 40 18 68 48 39 39 57 75 117 222 39 96 101 247 138 335 36 88 69
170 71 183 7 31 25 37 61 18 23 -12 37 -34 66 -108 41 -103 149 -301 180 -330
31 -28 65 -22 151 30 72 43 80 51 83 81 5 54 -15 89 -64 111 -45 19 -48 25
-44 87 1 17 -5 44 -14 61 l-15 29 75 74 c122 120 141 184 84 286 -17 29 -30
55 -30 57 0 3 36 -18 81 -46 l81 -52 18 24 c20 26 25 25 90 -22 25 -18 83 -60
130 -93 47 -32 91 -65 98 -72 30 -29 49 -12 148 124 182 252 254 358 254 373
0 8 -65 61 -145 118 -140 100 -144 104 -130 125 13 21 12 25 -20 56 -19 19
-35 37 -35 40 0 3 100 106 223 228 197 197 224 221 239 209 16 -12 1 -30 -145
-177 -89 -90 -175 -172 -190 -182 -15 -9 -27 -23 -27 -30 0 -19 103 -117 123
-117 10 0 22 10 26 23 5 12 93 105 196 207 103 102 191 195 196 208 14 35 -5
69 -86 154 -41 43 -75 84 -75 91 0 7 77 91 172 185 129 129 178 172 196 172
18 0 66 41 188 163 201 200 199 195 96 299 -104 103 -99 104 -298 -94z m200
-7 c33 -34 36 -42 27 -60 -16 -29 -40 -26 -78 11 -35 34 -41 56 -21 76 19 19
31 15 72 -27z m-147 -136 c40 -40 43 -78 4 -83 -29 -4 -81 43 -81 73 0 22 17
45 33 45 5 0 25 -16 44 -35z m-1189 -1044 l20 -48 -328 -328 c-238 -238 -332
-326 -346 -323 -10 2 -19 9 -19 15 0 7 58 71 129 142 123 124 128 131 118 158
-9 27 -3 35 192 231 110 111 204 202 207 202 4 0 15 -22 27 -49z m-458 -306
l-70 -70 -57 58 -58 57 70 70 69 70 58 -57 58 -58 -70 -70z m175 -505 c30 -60
32 -99 4 -134 -22 -28 -56 -34 -92 -14 -24 12 -67 55 -67 66 0 6 121 132 127
132 1 0 14 -22 28 -50z m-167 -164 c20 -14 49 -28 65 -31 15 -4 27 -10 27 -14
0 -13 -62 -71 -70 -66 -11 7 -70 112 -70 125 0 15 6 13 48 -14z m-484 -202
c-14 -38 -37 -96 -50 -129 -12 -33 -54 -142 -91 -242 -37 -101 -73 -182 -79
-180 -5 1 -55 49 -109 106 l-100 103 120 113 c204 191 329 304 333 301 1 -2
-9 -34 -24 -72z"/>
<path d="M1806 2451 c-95 -95 -144 -151 -136 -156 14 -8 18 -5 176 155 110
110 141 150 117 150 -5 0 -75 -67 -157 -149z"/>
<path d="M2845 2325 c-3 -8 -7 -22 -10 -30 -9 -30 -36 -28 -68 4 l-33 31 -122
-123 c-67 -67 -122 -126 -122 -131 0 -5 -7 -17 -15 -26 -13 -14 -9 -21 39 -69
50 -49 53 -55 45 -84 -8 -30 -4 -35 119 -159 70 -70 127 -134 127 -140 0 -7
-8 -14 -19 -16 -13 -3 -49 26 -117 94 -54 54 -100 96 -102 93 -2 -2 -11 -17
-22 -34 -10 -16 -22 -34 -27 -40 -4 -5 -21 -27 -36 -47 -182 -246 -185 -274
-42 -422 85 -88 88 -92 74 -116 -7 -14 -14 -45 -14 -70 0 -56 -6 -65 -51 -84
-41 -17 -62 -56 -57 -107 3 -30 11 -38 83 -81 81 -49 117 -57 146 -35 26 20
130 206 171 306 22 53 42 102 45 109 5 13 54 42 71 42 5 0 75 -163 157 -362
135 -330 152 -367 194 -410 27 -29 54 -48 67 -48 32 0 82 54 95 103 27 103
113 192 214 222 61 17 115 64 115 99 0 14 -107 127 -326 345 -280 279 -325
328 -321 349 7 35 -79 122 -121 122 -23 0 -47 17 -121 91 -50 50 -91 95 -91
100 0 5 21 36 47 69 l47 60 33 -32 c18 -17 33 -40 33 -49 0 -9 41 -57 90 -105
50 -49 93 -97 96 -109 9 -28 44 -65 63 -65 25 0 181 162 181 187 0 21 -42 63
-64 63 -6 0 -52 40 -101 90 -50 51 -100 92 -115 95 -15 3 -64 44 -115 95 -74
76 -86 92 -75 105 7 8 20 15 29 15 21 0 41 19 41 40 0 24 -62 80 -88 80 -13 0
-25 -7 -27 -15z m-125 -360 c-30 -30 -58 -55 -63 -55 -4 0 -37 30 -73 67 l-65
66 58 59 58 58 70 -70 70 -70 -55 -55z m-207 -514 c52 -53 57 -61 47 -81 -15
-28 -69 -60 -102 -60 -33 0 -68 42 -68 82 0 38 40 118 59 118 3 0 32 -27 64
-59z m112 -141 c-8 -25 -54 -108 -64 -114 -8 -5 -71 51 -71 64 0 4 13 11 28
15 16 3 44 17 63 30 42 30 52 31 44 5z m535 -236 c36 -33 94 -87 130 -120 35
-32 96 -89 134 -126 l71 -67 -82 -83 c-45 -46 -93 -96 -106 -113 l-25 -30 -10
25 c-12 27 -107 279 -153 400 -15 41 -39 106 -53 144 -14 38 -26 71 -26 74 0
6 25 -16 120 -104z"/>
<path d="M1571 2273 l-34 -14 29 -30 c15 -16 30 -29 33 -29 3 0 14 12 25 26
18 25 18 26 0 44 -17 16 -22 16 -53 3z"/>
<path d="M2295 2031 c-3 -5 12 -22 32 -37 21 -16 47 -35 58 -43 11 -9 -2 8
-30 37 -55 58 -52 56 -60 43z"/>
<path d="M1806 1418 c-12 -17 -18 -20 -28 -10 -29 29 -26 8 4 -33 18 -24 41
-56 51 -70 10 -14 25 -25 33 -25 12 0 104 57 104 65 0 5 -130 95 -138 95 -6 0
-18 -10 -26 -22z"/>
</g>
</svg>
